<?xml version="1.0" encoding="UTF-8" standalone="no"?>
<svg
   width="85.82618pt"
   height="94.220345pt"
   viewBox="0 0 85.826179 94.220345"
   version="1.2"
   id="svg13706"
   inkscape:version="1.1-dev (0486c1a, 2020-10-10)"
   sodipodi:docname="arm.svg"
   inkscape:export-filename="/Users/jmouret/git/resibots/papers/2020_gecco_multitask/figures/arm/arm_principle.png"
   inkscape:export-xdpi="776.65997"
   inkscape:export-ydpi="776.65997"
   xmlns:inkscape="http://www.inkscape.org/namespaces/inkscape"
   xmlns:sodipodi="http://sodipodi.sourceforge.net/DTD/sodipodi-0.dtd"
   xmlns="http://www.w3.org/2000/svg"
   xmlns:svg="http://www.w3.org/2000/svg"
   xmlns:rdf="http://www.w3.org/1999/02/22-rdf-syntax-ns#"
   xmlns:cc="http://creativecommons.org/ns#"
   xmlns:dc="http://purl.org/dc/elements/1.1/">
  <metadata
     id="metadata13948">
    <rdf:RDF>
      <cc:Work
         rdf:about="">
        <dc:format>image/svg+xml</dc:format>
        <dc:type
           rdf:resource="http://purl.org/dc/dcmitype/StillImage" />
      </cc:Work>
    </rdf:RDF>
  </metadata>
  <sodipodi:namedview
     pagecolor="#ffffff"
     bordercolor="#666666"
     borderopacity="1"
     objecttolerance="10"
     gridtolerance="10"
     guidetolerance="10"
     inkscape:pageopacity="0"
     inkscape:pageshadow="2"
     inkscape:window-width="1741"
     inkscape:window-height="970"
     id="namedview13946"
     showgrid="false"
     inkscape:zoom="4.1027884"
     inkscape:cx="86.404651"
     inkscape:cy="52.647122"
     inkscape:window-x="389"
     inkscape:window-y="193"
     inkscape:window-maximized="0"
     inkscape:current-layer="svg13706"
     fit-margin-top="0"
     fit-margin-left="0"
     fit-margin-right="0"
     fit-margin-bottom="0" />
  <defs
     id="defs13708">
    <marker
       style="overflow:visible"
       id="TriangleInM"
       refX="0"
       refY="0"
       orient="auto"
       inkscape:stockid="TriangleInM"
       inkscape:isstock="true">
      <path
         transform="scale(-0.4)"
         style="fill:context-stroke;fill-rule:evenodd;stroke:context-stroke;stroke-width:1pt"
         d="M 5.77,0 -2.88,5 V -5 Z"
         id="path7495" />
    </marker>
    <marker
       style="overflow:visible"
       id="marker7647"
       refX="0"
       refY="0"
       orient="auto"
       inkscape:stockid="TriangleOutM"
       inkscape:isstock="true">
      <path
         transform="scale(0.4)"
         style="fill:context-stroke;fill-rule:evenodd;stroke:context-stroke;stroke-width:1pt"
         d="M 5.77,0 -2.88,5 V -5 Z"
         id="path7645" />
    </marker>
    <marker
       style="overflow:visible"
       id="TriangleInL"
       refX="0"
       refY="0"
       orient="auto"
       inkscape:stockid="TriangleInL"
       inkscape:isstock="true">
      <path
         transform="scale(-0.8)"
         style="fill:context-stroke;fill-rule:evenodd;stroke:context-stroke;stroke-width:1pt"
         d="M 5.77,0 -2.88,5 V -5 Z"
         id="path7492" />
    </marker>
    <marker
       style="overflow:visible"
       id="TriangleOutM"
       refX="0"
       refY="0"
       orient="auto"
       inkscape:stockid="TriangleOutM"
       inkscape:isstock="true">
      <path
         transform="scale(0.4)"
         style="fill:context-stroke;fill-rule:evenodd;stroke:context-stroke;stroke-width:1pt"
         d="M 5.77,0 -2.88,5 V -5 Z"
         id="path7504" />
    </marker>
    <clipPath
       id="clip1">
      <path
         d="m 7,78 h 13 v 8.28125 H 7 Z m 0,0"
         id="path13711" />
    </clipPath>
    <clipPath
       id="clip2">
      <path
         d="m 11,78 h 13 v 8.28125 H 11 Z m 0,0"
         id="path13714" />
    </clipPath>
    <clipPath
       id="clip3">
      <path
         d="m 15,78 h 13 v 8.28125 H 15 Z m 0,0"
         id="path13717" />
    </clipPath>
    <clipPath
       id="clip4">
      <path
         d="m 18,78 h 14 v 8.28125 H 18 Z m 0,0"
         id="path13720" />
    </clipPath>
    <clipPath
       id="clip5">
      <path
         d="m 22,78 h 13 v 8.28125 H 22 Z m 0,0"
         id="path13723" />
    </clipPath>
    <clipPath
       id="clip6">
      <path
         d="m 26,78 h 13 v 8.28125 H 26 Z m 0,0"
         id="path13726" />
    </clipPath>
    <clipPath
       id="clip7">
      <path
         d="m 30,78 h 13 v 8.28125 H 30 Z m 0,0"
         id="path13729" />
    </clipPath>
    <clipPath
       id="clip8">
      <path
         d="m 33,78 h 14 v 8.28125 H 33 Z m 0,0"
         id="path13732" />
    </clipPath>
    <clipPath
       id="clip9">
      <path
         d="m 37,78 h 13 v 8.28125 H 37 Z m 0,0"
         id="path13735" />
    </clipPath>
    <clipPath
       id="clip10">
      <path
         d="m 41,78 h 13 v 8.28125 H 41 Z m 0,0"
         id="path13738" />
    </clipPath>
    <clipPath
       id="clip11">
      <path
         d="m 45,78 h 13 v 8.28125 H 45 Z m 0,0"
         id="path13741" />
    </clipPath>
    <clipPath
       id="clip12">
      <path
         d="m 48,78 h 14 v 8.28125 H 48 Z m 0,0"
         id="path13744" />
    </clipPath>
    <clipPath
       id="clip13">
      <path
         d="m 52,78 h 13 v 8.28125 H 52 Z m 0,0"
         id="path13747" />
    </clipPath>
    <clipPath
       id="clip14">
      <path
         d="M 2,41 H 52 V 86.28125 H 2 Z m 0,0"
         id="path13750" />
    </clipPath>
    <clipPath
       id="clip15">
      <path
         d="m 72,22 h 2.171875 v 6 H 72 Z m 0,0"
         id="path13753" />
    </clipPath>
    <marker
       style="overflow:visible"
       id="TriangleInM-9"
       refX="0"
       refY="0"
       orient="auto"
       inkscape:stockid="TriangleInM"
       inkscape:isstock="true">
      <path
         transform="scale(-0.4)"
         style="fill:context-stroke;fill-rule:evenodd;stroke:context-stroke;stroke-width:1pt"
         d="M 5.77,0 -2.88,5 V -5 Z"
         id="path7495-4" />
    </marker>
    <marker
       style="overflow:visible"
       id="marker7647-3"
       refX="0"
       refY="0"
       orient="auto"
       inkscape:stockid="TriangleOutM"
       inkscape:isstock="true">
      <path
         transform="scale(0.4)"
         style="fill:context-stroke;fill-rule:evenodd;stroke:context-stroke;stroke-width:1pt"
         d="M 5.77,0 -2.88,5 V -5 Z"
         id="path7645-9" />
    </marker>
  </defs>
  <g
     clip-path="url(#clip1)"
     clip-rule="nonzero"
     id="g13756"
     transform="translate(10.849474,7.9390935)">
    <path
       style="fill:none;stroke:#000000;stroke-width:0.749999;stroke-linecap:butt;stroke-linejoin:miter;stroke-miterlimit:4;stroke-opacity:1"
       d="m 15.597656,82.269531 -3.75,3.75"
       id="path13758" />
  </g>
  <g
     clip-path="url(#clip2)"
     clip-rule="nonzero"
     id="g13760"
     transform="translate(10.849474,7.9390935)">
    <path
       style="fill:none;stroke:#000000;stroke-width:0.749999;stroke-linecap:butt;stroke-linejoin:miter;stroke-miterlimit:4;stroke-opacity:1"
       d="m 19.347656,82.269531 -3.75,3.75"
       id="path13762" />
  </g>
  <g
     clip-path="url(#clip3)"
     clip-rule="nonzero"
     id="g13764"
     transform="translate(10.849474,7.9390935)">
    <path
       style="fill:none;stroke:#000000;stroke-width:0.749999;stroke-linecap:butt;stroke-linejoin:miter;stroke-miterlimit:4;stroke-opacity:1"
       d="m 23.097656,82.269531 -3.75,3.75"
       id="path13766" />
  </g>
  <g
     clip-path="url(#clip4)"
     clip-rule="nonzero"
     id="g13768"
     transform="translate(10.849474,7.9390935)">
    <path
       style="fill:none;stroke:#000000;stroke-width:0.749999;stroke-linecap:butt;stroke-linejoin:miter;stroke-miterlimit:4;stroke-opacity:1"
       d="m 26.847656,82.269531 -3.75,3.75"
       id="path13770" />
  </g>
  <g
     clip-path="url(#clip5)"
     clip-rule="nonzero"
     id="g13772"
     transform="translate(10.849474,7.9390935)">
    <path
       style="fill:none;stroke:#000000;stroke-width:0.749999;stroke-linecap:butt;stroke-linejoin:miter;stroke-miterlimit:4;stroke-opacity:1"
       d="m 30.597656,82.269531 -3.75,3.75"
       id="path13774" />
  </g>
  <g
     clip-path="url(#clip6)"
     clip-rule="nonzero"
     id="g13776"
     transform="translate(10.849474,7.9390935)">
    <path
       style="fill:none;stroke:#000000;stroke-width:0.749999;stroke-linecap:butt;stroke-linejoin:miter;stroke-miterlimit:4;stroke-opacity:1"
       d="m 34.347656,82.269531 -3.75,3.75"
       id="path13778" />
  </g>
  <g
     clip-path="url(#clip7)"
     clip-rule="nonzero"
     id="g13780"
     transform="translate(10.849474,7.9390935)">
    <path
       style="fill:none;stroke:#000000;stroke-width:0.749999;stroke-linecap:butt;stroke-linejoin:miter;stroke-miterlimit:4;stroke-opacity:1"
       d="m 38.097656,82.269531 -3.75,3.75"
       id="path13782" />
  </g>
  <g
     clip-path="url(#clip8)"
     clip-rule="nonzero"
     id="g13784"
     transform="translate(10.849474,7.9390935)">
    <path
       style="fill:none;stroke:#000000;stroke-width:0.749999;stroke-linecap:butt;stroke-linejoin:miter;stroke-miterlimit:4;stroke-opacity:1"
       d="m 41.847656,82.269531 -3.75,3.75"
       id="path13786" />
  </g>
  <g
     clip-path="url(#clip9)"
     clip-rule="nonzero"
     id="g13788"
     transform="translate(10.849474,7.9390935)">
    <path
       style="fill:none;stroke:#000000;stroke-width:0.749999;stroke-linecap:butt;stroke-linejoin:miter;stroke-miterlimit:4;stroke-opacity:1"
       d="m 45.597656,82.269531 -3.75,3.75"
       id="path13790" />
  </g>
  <g
     clip-path="url(#clip10)"
     clip-rule="nonzero"
     id="g13792"
     transform="translate(10.849474,7.9390935)">
    <path
       style="fill:none;stroke:#000000;stroke-width:0.749999;stroke-linecap:butt;stroke-linejoin:miter;stroke-miterlimit:4;stroke-opacity:1"
       d="m 49.347656,82.269531 -3.75,3.75"
       id="path13794" />
  </g>
  <g
     clip-path="url(#clip11)"
     clip-rule="nonzero"
     id="g13796"
     transform="translate(10.849474,7.9390935)">
    <path
       style="fill:none;stroke:#000000;stroke-width:0.749999;stroke-linecap:butt;stroke-linejoin:miter;stroke-miterlimit:4;stroke-opacity:1"
       d="m 53.097656,82.269531 -3.75,3.75"
       id="path13798" />
  </g>
  <g
     clip-path="url(#clip12)"
     clip-rule="nonzero"
     id="g13800"
     transform="translate(10.849474,7.9390935)">
    <path
       style="fill:none;stroke:#000000;stroke-width:0.749999;stroke-linecap:butt;stroke-linejoin:miter;stroke-miterlimit:4;stroke-opacity:1"
       d="m 56.847656,82.269531 -3.75,3.75"
       id="path13802" />
  </g>
  <g
     clip-path="url(#clip13)"
     clip-rule="nonzero"
     id="g13804"
     transform="translate(10.849474,7.9390935)">
    <path
       style="fill:none;stroke:#000000;stroke-width:0.749999;stroke-linecap:butt;stroke-linejoin:miter;stroke-miterlimit:4;stroke-opacity:1"
       d="m 60.597656,82.269531 -3.75,3.75"
       id="path13806" />
  </g>
  <path
     style="fill:none;stroke:#000000;stroke-width:1.41732;stroke-linecap:square;stroke-linejoin:miter;stroke-miterlimit:4;stroke-opacity:1"
     d="m 22.69713,89.997688 h 48.75"
     id="path13808" />
  <g
     clip-path="url(#clip14)"
     clip-rule="nonzero"
     id="g13810"
     transform="translate(10.849474,7.9390935)">
    <path
       style="fill:none;stroke:#000000;stroke-width:2.83465;stroke-linecap:round;stroke-linejoin:miter;stroke-miterlimit:4;stroke-opacity:1"
       d="m 35.847656,81.519531 -16.875,-23.765625"
       id="path13812" />
  </g>
  <path
     style="fill:none;stroke:#000000;stroke-width:2.83465;stroke-linecap:round;stroke-linejoin:miter;stroke-miterlimit:4;stroke-opacity:1"
     d="m 29.286974,65.001594 6,-30.160156"
     id="path13814" />
  <path
     style="fill:none;stroke:#a11717;stroke-width:0.425197;stroke-linecap:butt;stroke-linejoin:miter;stroke-miterlimit:4;stroke-opacity:1"
     d="M 43.587755,90.657844 26.44713,66.958625"
     id="path13816" />
  <path
     style="fill:#a11717;fill-opacity:1;fill-rule:evenodd;stroke:#a11717;stroke-width:0.226772;stroke-linecap:butt;stroke-linejoin:miter;stroke-miterlimit:4;stroke-opacity:1"
     d="m 44.161974,91.454719 -1.550782,-0.695313 1.378906,-0.996093 z m 0,0"
     id="path13818" />
  <path
     style="fill:#a11717;fill-opacity:1;fill-rule:evenodd;stroke:#a11717;stroke-width:0.226772;stroke-linecap:butt;stroke-linejoin:miter;stroke-miterlimit:4;stroke-opacity:1"
     d="m 25.872911,66.16175 1.550782,0.695313 -1.378906,0.996093 z m 0,0"
     id="path13820" />
  <path
     style="fill:#7fe3ff;fill-opacity:0.501961;fill-rule:nonzero;stroke:none"
     d="m 24.005724,54.173469 c -3.195312,1.472656 -5.683594,4.113281 -6.898438,7.3125 l 17.179688,-7.71875 c -3.242188,-1.234375 -6.914062,-1.105469 -10.164062,0.355469 -0.03906,0.01563 -0.07813,0.03516 -0.117188,0.05078 z m 0,0"
     id="path13822" />
  <path
     style="fill:#7fe3ff;fill-opacity:0.501961;fill-rule:nonzero;stroke:none"
     d="m 17.501818,61.310188 10.339844,4.539062 3.359374,-1.433594 3.511719,-10.839843 z m 0,0"
     id="path13824" />
  <path
     style="fill:none;stroke:#4597d7;stroke-width:0.283464;stroke-linecap:round;stroke-linejoin:miter;stroke-miterlimit:4;stroke-opacity:1"
     d="m 34.341662,53.8805 c -3.238281,-1.234375 -6.914063,-1.105468 -10.164063,0.355469 -0.03906,0.01563 -0.07813,0.03516 -0.117183,0.0547 -3.195313,1.468748 -5.683594,4.109376 -6.894532,7.308595"
     id="path13826" />
  <path
     style="fill:#4597d7;fill-opacity:1;fill-rule:evenodd;stroke:#4597d7;stroke-width:0.151181;stroke-linecap:butt;stroke-linejoin:miter;stroke-miterlimit:4;stroke-opacity:1"
     d="m 34.954942,54.114875 -1.117187,0.179688 0.402344,-1.058594 z m 0,0"
     id="path13828" />
  <path
     style="fill:#4597d7;fill-opacity:1;fill-rule:evenodd;stroke:#4597d7;stroke-width:0.151181;stroke-linecap:butt;stroke-linejoin:miter;stroke-miterlimit:4;stroke-opacity:1"
     d="m 16.931505,62.212532 -0.179687,-1.117188 1.058593,0.402344 z m 0,0"
     id="path13830" />
  <path
     style="fill:#636363;fill-opacity:1;fill-rule:nonzero;stroke:none"
     d="m 31.201036,64.747688 c 0,0.9375 -0.757812,1.699218 -1.699218,1.699218 -0.9375,0 -1.699219,-0.761718 -1.699219,-1.699218 0,-0.941406 0.761719,-1.703125 1.699219,-1.703125 0.941406,0 1.699218,0.761719 1.699218,1.703125 z m 0,0"
     id="path13832" />
  <path
     style="fill:#7fe3ff;fill-opacity:0.501961;fill-rule:nonzero;stroke:none"
     d="m 46.099474,77.185188 c -3.515625,0.03125 -6.867188,1.417968 -9.289062,3.84375 h 18.835937 c -2.453125,-2.457032 -5.855469,-3.84375 -9.417969,-3.84375 -0.04297,0 -0.08594,0 -0.128906,0 z m 0,0"
     id="path13834" />
  <path
     style="fill:#7fe3ff;fill-opacity:0.501961;fill-rule:nonzero;stroke:none"
     d="m 37.244005,81.028938 7.570313,8.378906 3.652344,0.06641 7.644531,-8.445312 z m 0,0"
     id="path13836" />
  <path
     style="fill:none;stroke:#4597d7;stroke-width:0.283465;stroke-linecap:round;stroke-linejoin:miter;stroke-miterlimit:4;stroke-opacity:1"
     d="m 55.650255,81.153938 c -2.453125,-2.453125 -5.855469,-3.84375 -9.417969,-3.84375 -0.04297,0 -0.08594,0 -0.128906,0 -3.515625,0.03516 -6.867187,1.421875 -9.289062,3.84375"
     id="path13838" />
  <path
     style="fill:#4597d7;fill-opacity:1;fill-rule:evenodd;stroke:#4597d7;stroke-width:0.151181;stroke-linecap:butt;stroke-linejoin:miter;stroke-miterlimit:4;stroke-opacity:1"
     d="m 56.111193,81.618781 -1.09375,-0.296874 0.800781,-0.800782 z m 0,0"
     id="path13840" />
  <path
     style="fill:#4597d7;fill-opacity:1;fill-rule:evenodd;stroke:#4597d7;stroke-width:0.151182;stroke-linecap:butt;stroke-linejoin:miter;stroke-miterlimit:4;stroke-opacity:1"
     d="m 36.35338,81.618781 0.29297,-1.097655 0.80078,0.800781 z m 0,0"
     id="path13842" />
  <path
     style="fill:#636363;fill-opacity:1;fill-rule:nonzero;stroke:none"
     d="m 48.400255,89.458625 c 0,0.9375 -0.761719,1.699219 -1.703125,1.699219 -0.9375,0 -1.699218,-0.761719 -1.699218,-1.699219 0,-0.941406 0.761718,-1.703125 1.699218,-1.703125 0.941406,0 1.703125,0.761719 1.703125,1.703125 z m 0,0"
     id="path13844" />
  <path
     style="fill:none;stroke:#000000;stroke-width:2.83465;stroke-linecap:round;stroke-linejoin:miter;stroke-miterlimit:4;stroke-opacity:1"
     d="M 35.704943,34.169563 56.193224,11.243782"
     id="path13846" />
  <path
     style="fill:#7fe3ff;fill-opacity:0.501961;fill-rule:nonzero;stroke:none"
     d="m 36.97838,22.743782 c -3.480468,-0.511719 -7.003906,0.332031 -9.773437,2.347656 l 18.601562,2.9375 c -2.039062,-2.804688 -5.183593,-4.707032 -8.699219,-5.265625 -0.04297,-0.0039 -0.08594,-0.01172 -0.128906,-0.01953 z m 0,0"
     id="path13848" />
  <path
     style="fill:#7fe3ff;fill-opacity:0.501961;fill-rule:nonzero;stroke:none"
     d="m 27.630724,25.16175 6.171875,9.457032 3.597656,0.632812 8.867188,-7.148438 z m 0,0"
     id="path13850" />
  <path
     style="fill:none;stroke:#4597d7;stroke-width:0.283465;stroke-linecap:round;stroke-linejoin:miter;stroke-miterlimit:4;stroke-opacity:1"
     d="m 45.790881,28.153938 c -2.039064,-2.804687 -5.183594,-4.707031 -8.699219,-5.261719 -0.04688,-0.0078 -0.08985,-0.01562 -0.132815,-0.02342 -3.476564,-0.511714 -7,0.335938 -9.769531,2.351563"
     id="path13852" />
  <path
     style="fill:#4597d7;fill-opacity:1;fill-rule:evenodd;stroke:#4597d7;stroke-width:0.151181;stroke-linecap:butt;stroke-linejoin:miter;stroke-miterlimit:4;stroke-opacity:1"
     d="m 46.177599,28.685188 -1.035156,-0.460938 0.917969,-0.667968 z m 0,0"
     id="path13854" />
  <path
     style="fill:#4597d7;fill-opacity:1;fill-rule:evenodd;stroke:#4597d7;stroke-width:0.151181;stroke-linecap:butt;stroke-linejoin:miter;stroke-miterlimit:4;stroke-opacity:1"
     d="m 26.658067,25.603156 0.460939,-1.035156 0.667969,0.917969 z m 0,0"
     id="path13856" />
  <path
     style="fill:#636363;fill-opacity:1;fill-rule:nonzero;stroke:none"
     d="m 37.41588,34.59925 c 0,0.941406 -0.761718,1.699219 -1.699218,1.699219 -0.941407,0 -1.699219,-0.757813 -1.699219,-1.699219 0,-0.9375 0.757812,-1.699218 1.699219,-1.699218 0.9375,0 1.699218,0.761718 1.699218,1.699218 z m 0,0"
     id="path13858" />
  <path
     style="fill:none;stroke:#a11717;stroke-width:0.425197;stroke-linecap:butt;stroke-linejoin:miter;stroke-miterlimit:4;stroke-opacity:1"
     d="M 26.337755,63.341438 31.69713,34.587532"
     id="path13860" />
  <path
     style="fill:#a11717;fill-opacity:1;fill-rule:evenodd;stroke:#a11717;stroke-width:0.226771;stroke-linecap:butt;stroke-linejoin:miter;stroke-miterlimit:4;stroke-opacity:1"
     d="m 26.158067,64.306282 -0.566406,-1.601563 1.671875,0.308592 z m 0,0"
     id="path13862" />
  <path
     style="fill:#a11717;fill-opacity:1;fill-rule:evenodd;stroke:#a11717;stroke-width:0.226771;stroke-linecap:butt;stroke-linejoin:miter;stroke-miterlimit:4;stroke-opacity:1"
     d="m 31.876818,33.622687 0.566406,1.601563 -1.671875,-0.3125 z m 0,0"
     id="path13864" />
  <path
     style="fill:none;stroke:#a11717;stroke-width:0.425197;stroke-linecap:butt;stroke-linejoin:miter;stroke-miterlimit:4;stroke-opacity:1"
     d="m 33.19713,31.03675 19.5,-22.1914065"
     id="path13866" />
  <path
     style="fill:#a11717;fill-opacity:1;fill-rule:evenodd;stroke:#a11717;stroke-width:0.226772;stroke-linecap:butt;stroke-linejoin:miter;stroke-miterlimit:4;stroke-opacity:1"
     d="m 32.552599,31.775031 0.332032,-1.667969 1.277347,1.124996 z m 0,0"
     id="path13868" />
  <path
     style="fill:#a11717;fill-opacity:1;fill-rule:evenodd;stroke:#a11717;stroke-width:0.226772;stroke-linecap:butt;stroke-linejoin:miter;stroke-miterlimit:4;stroke-opacity:1"
     d="M 53.345568,8.1109687 53.013536,9.7750308 51.736193,8.6539369 Z m 0,0"
     id="path13870" />
  <path
     style="fill:none;stroke:#000000;stroke-width:0.283465;stroke-linecap:butt;stroke-linejoin:miter;stroke-miterlimit:4;stroke-dasharray:0.283465, 0.850394;stroke-opacity:1"
     d="m 46.69713,89.458625 v -14.25"
     id="path13872" />
  <path
     style="fill:none;stroke:#000000;stroke-width:0.283465;stroke-linecap:butt;stroke-linejoin:miter;stroke-miterlimit:4;stroke-opacity:1"
     d="m 46.69713,80.845344 c 0,0 -1.386718,-0.269531 -2.25,0 -0.859375,0.273438 -1.679687,1.410156 -1.679687,1.410156"
     id="path13874" />
  <path
     style="fill:#000000;fill-opacity:1;fill-rule:evenodd;stroke:#000000;stroke-width:0.151181;stroke-linecap:butt;stroke-linejoin:miter;stroke-miterlimit:4;stroke-opacity:1"
     d="m 47.341662,80.970344 -1.074219,0.371094 0.218739,-1.113284 z m 0,0"
     id="path13876" />
  <path
     style="fill:#000000;fill-opacity:1;fill-rule:evenodd;stroke:#000000;stroke-width:0.151181;stroke-linecap:butt;stroke-linejoin:miter;stroke-miterlimit:4;stroke-opacity:1"
     d="m 42.384631,82.78675 0.11328,-1.128906 0.921875,0.664062 z m 0,0"
     id="path13878" />
  <path
     style="fill:none;stroke:#000000;stroke-width:0.283465;stroke-linecap:butt;stroke-linejoin:miter;stroke-miterlimit:4;stroke-dasharray:0.283465, 0.850394;stroke-opacity:1"
     d="M 46.880724,89.400032 39.017443,77.513313"
     id="path13880" />
  <path
     style="fill:#000000;fill-opacity:1;fill-rule:nonzero;stroke:none"
     d="M 45.091662,74.97425 H 44.076036 L 43.685412,75.693 c -0.140626,-0.40625 -0.484376,-0.796875 -1.109376,-0.796875 -1.3125,0 -2.234374,1.25 -2.234374,2.453125 0,0.90625 0.5,1.359375 1.25,1.359375 0.5625,0 1.015624,-0.140625 1.46875,-0.625 0.0625,0.3125 0.359374,0.640625 0.71875,0.640625 0.53125,0 0.828124,-0.5 0.984374,-1.125 l -0.1875,-0.0625 c -0.125,0.40625 -0.296874,0.625 -0.46875,0.625 -0.125,0 -0.28125,-0.140625 -0.34375,-0.796875 0,-0.04687 0,-0.125 0,-0.1875 0,-0.04687 0,-0.09375 0,-0.09375 z m -2.109376,1.375 c 0,0.21875 -0.03125,0.4375 -0.0625,0.625 -0.21875,0.578125 -0.75,1.4375 -1.171874,1.4375 -0.328126,0 -0.46875,-0.46875 -0.46875,-0.9375 0,-1.328125 0.796874,-2.265625 1.1875,-2.265625 0.390624,0 0.515624,0.578125 0.515624,1.140625 z m 0,0"
     id="path13882" />
  <path
     style="fill:#000000;fill-opacity:1;fill-rule:nonzero;stroke:none"
     d="m 44.661974,77.423469 v -0.296875 c 0.28125,-0.03125 0.472656,-0.07813 0.578125,-0.140625 0.113281,-0.0625 0.203125,-0.210937 0.265625,-0.453125 h 0.296875 v 3.078125 h -0.40625 v -2.1875 z m 0,0"
     id="path13884" />
  <path
     style="fill:#4597d7;fill-opacity:1;fill-rule:nonzero;stroke:none"
     d="M 56.341662,72.72425 H 55.326036 L 54.935412,73.443 c -0.140626,-0.40625 -0.484376,-0.796875 -1.109376,-0.796875 -1.3125,0 -2.234374,1.25 -2.234374,2.453125 0,0.90625 0.5,1.359375 1.25,1.359375 0.5625,0 1.015624,-0.140625 1.46875,-0.625 0.0625,0.3125 0.359374,0.640625 0.71875,0.640625 0.53125,0 0.828124,-0.5 0.984374,-1.125 l -0.1875,-0.0625 c -0.125,0.40625 -0.296874,0.625 -0.46875,0.625 -0.125,0 -0.28125,-0.140625 -0.34375,-0.796875 0,-0.04687 0,-0.125 0,-0.1875 0,-0.04687 0,-0.09375 0,-0.09375 z m -2.109376,1.375 c 0,0.21875 -0.03125,0.4375 -0.0625,0.625 -0.21875,0.578125 -0.75,1.4375 -1.171874,1.4375 -0.328126,0 -0.46875,-0.46875 -0.46875,-0.9375 0,-1.328125 0.796874,-2.265625 1.1875,-2.265625 0.390624,0 0.515624,0.578125 0.515624,1.140625 z m 0,0"
     id="path13886" />
  <path
     style="fill:#4597d7;fill-opacity:1;fill-rule:nonzero;stroke:none"
     d="m 55.798693,76.419563 h 0.296875 v 0.25 c 0.07031,-0.09375 0.132812,-0.160157 0.1875,-0.203125 0.101562,-0.0625 0.21875,-0.09375 0.34375,-0.09375 0.132812,0 0.242187,0.03906 0.328125,0.109375 0.05078,0.03125 0.09766,0.08984 0.140625,0.171875 0.0625,-0.09375 0.132812,-0.160156 0.21875,-0.203125 0.09375,-0.05078 0.195312,-0.07813 0.3125,-0.07813 0.238281,0 0.398437,0.08984 0.484375,0.265625 0.05078,0.08594 0.07813,0.203125 0.07813,0.359375 v 1.1875 h -0.3125 v -1.234375 c 0,-0.113281 -0.03125,-0.191407 -0.09375,-0.234375 -0.05469,-0.05078 -0.125,-0.07813 -0.21875,-0.07813 -0.117188,0 -0.214844,0.04297 -0.296875,0.125 -0.08594,0.07422 -0.125,0.203125 -0.125,0.390625 v 1.03125 h -0.296875 v -1.15625 c 0,-0.125 -0.01563,-0.210938 -0.04687,-0.265625 -0.05469,-0.08203 -0.136719,-0.125 -0.25,-0.125 -0.117188,0 -0.21875,0.04687 -0.3125,0.140625 -0.09375,0.08594 -0.140625,0.242187 -0.140625,0.46875 v 0.9375 h -0.296875 z m 0,0"
     id="path13888" />
  <path
     style="fill:#4597d7;fill-opacity:1;fill-rule:nonzero;stroke:none"
     d="m 58.861193,77.716438 c 0,0.08594 0.03125,0.152344 0.09375,0.203125 0.0625,0.05469 0.132812,0.07813 0.21875,0.07813 0.101562,0 0.203125,-0.02344 0.296875,-0.07813 0.164062,-0.08203 0.25,-0.210938 0.25,-0.390625 v -0.25 c -0.03125,0.02344 -0.07813,0.04297 -0.140625,0.0625 -0.05469,0.01172 -0.105469,0.02344 -0.15625,0.03125 l -0.1875,0.03125 c -0.105469,0.01172 -0.1875,0.03125 -0.25,0.0625 -0.08594,0.05469 -0.125,0.136718 -0.125,0.25 z m 0.71875,-0.609375 c 0.0625,-0.0078 0.109375,-0.03516 0.140625,-0.07813 0.0078,-0.03125 0.01563,-0.07031 0.01563,-0.125 0,-0.09375 -0.03906,-0.160156 -0.109375,-0.203125 -0.07422,-0.05078 -0.179688,-0.07813 -0.3125,-0.07813 -0.15625,0 -0.265625,0.04297 -0.328125,0.125 -0.04297,0.04297 -0.07031,0.109375 -0.07813,0.203125 h -0.265625 c 0,-0.21875 0.06641,-0.367188 0.203125,-0.453125 0.132812,-0.08203 0.289062,-0.125 0.46875,-0.125 0.21875,0 0.390625,0.03906 0.515625,0.109375 0.125,0.08594 0.1875,0.210937 0.1875,0.375 v 1.03125 c 0,0.02344 0.0039,0.04297 0.01563,0.0625 0.01953,0.02344 0.05078,0.03125 0.09375,0.03125 0.0078,0 0.01953,0 0.03125,0 0.01953,0 0.03906,-0.0039 0.0625,-0.01563 v 0.234375 c -0.04297,0.0078 -0.07813,0.01563 -0.109375,0.01563 -0.02344,0 -0.05469,0 -0.09375,0 -0.105469,0 -0.179688,-0.03516 -0.21875,-0.109375 -0.03125,-0.03125 -0.05469,-0.08203 -0.0625,-0.15625 -0.0625,0.08594 -0.152344,0.15625 -0.265625,0.21875 -0.105469,0.05078 -0.226563,0.07813 -0.359375,0.07813 -0.167969,0 -0.304688,-0.04687 -0.40625,-0.140625 -0.105469,-0.101563 -0.15625,-0.234375 -0.15625,-0.390625 0,-0.164063 0.04687,-0.289063 0.140625,-0.375 0.101562,-0.09375 0.238281,-0.148438 0.40625,-0.171875 z m -0.25,-0.734375 z m 0,0"
     id="path13890" />
  <path
     style="fill:#4597d7;fill-opacity:1;fill-rule:nonzero;stroke:none"
     d="m 60.341662,76.419563 h 0.390624 l 0.40625,0.609375 0.40625,-0.609375 h 0.375 l -0.609374,0.859375 0.625,0.90625 h -0.375 l -0.4375,-0.671875 -0.4375,0.671875 h -0.375 l 0.625,-0.90625 z m 0,0"
     id="path13892" />
  <path
     style="fill:#4597d7;fill-opacity:1;fill-rule:nonzero;stroke:none"
     d="m 15.60338,48.818 h -1.015625 l -0.390625,0.71875 c -0.140625,-0.40625 -0.484375,-0.796875 -1.109375,-0.796875 -1.3125,0 -2.234375,1.25 -2.234375,2.453125 0,0.90625 0.5,1.359375 1.25,1.359375 0.5625,0 1.015625,-0.140625 1.46875,-0.625 0.0625,0.3125 0.359375,0.640625 0.71875,0.640625 0.53125,0 0.828125,-0.5 0.984375,-1.125 l -0.1875,-0.0625 c -0.125,0.40625 -0.296875,0.625 -0.46875,0.625 -0.125,0 -0.28125,-0.140625 -0.34375,-0.796875 0,-0.04687 0,-0.125 0,-0.1875 0,-0.04687 0,-0.09375 0,-0.09375 z m -2.109375,1.375 c 0,0.21875 -0.03125,0.4375 -0.0625,0.625 -0.21875,0.578125 -0.75,1.4375 -1.171875,1.4375 -0.328125,0 -0.46875,-0.46875 -0.46875,-0.9375 0,-1.328125 0.796875,-2.265625 1.1875,-2.265625 0.390625,0 0.515625,0.578125 0.515625,1.140625 z m 0,0"
     id="path13894" />
  <path
     style="fill:#4597d7;fill-opacity:1;fill-rule:nonzero;stroke:none"
     d="m 15.056505,52.513313 h 0.296875 v 0.25 c 0.07031,-0.09375 0.132813,-0.160157 0.1875,-0.203125 0.101563,-0.0625 0.21875,-0.09375 0.34375,-0.09375 0.132813,0 0.242188,0.03906 0.328125,0.109375 0.05078,0.03125 0.09766,0.08984 0.140625,0.171875 0.0625,-0.09375 0.132813,-0.160156 0.21875,-0.203125 0.09375,-0.05078 0.195313,-0.07813 0.3125,-0.07813 0.238282,0 0.398438,0.08984 0.484375,0.265625 0.05078,0.08594 0.07813,0.203125 0.07813,0.359375 v 1.1875 h -0.3125 v -1.234375 c 0,-0.113281 -0.03125,-0.191407 -0.09375,-0.234375 -0.05469,-0.05078 -0.125,-0.07813 -0.21875,-0.07813 -0.117187,0 -0.214844,0.04297 -0.296875,0.125 -0.08594,0.07422 -0.125,0.203125 -0.125,0.390625 v 1.03125 H 16.10338 v -1.15625 c 0,-0.125 -0.01563,-0.210938 -0.04687,-0.265625 -0.05469,-0.08203 -0.136719,-0.125 -0.25,-0.125 -0.117187,0 -0.21875,0.04687 -0.3125,0.140625 -0.09375,0.08594 -0.140625,0.242187 -0.140625,0.46875 v 0.9375 h -0.296875 z m 0,0"
     id="path13896" />
  <path
     style="fill:#4597d7;fill-opacity:1;fill-rule:nonzero;stroke:none"
     d="m 18.119005,53.810188 c 0,0.08594 0.03125,0.152344 0.09375,0.203125 0.0625,0.05469 0.132813,0.07813 0.21875,0.07813 0.101563,0 0.203125,-0.02344 0.296875,-0.07813 0.164063,-0.08203 0.25,-0.210938 0.25,-0.390625 v -0.25 c -0.03125,0.02344 -0.07813,0.04297 -0.140625,0.0625 -0.05469,0.01172 -0.105469,0.02344 -0.15625,0.03125 l -0.1875,0.03125 c -0.105469,0.01172 -0.1875,0.03125 -0.25,0.0625 -0.08594,0.05469 -0.125,0.136718 -0.125,0.25 z m 0.71875,-0.609375 c 0.0625,-0.0078 0.109375,-0.03516 0.140625,-0.07813 0.0078,-0.03125 0.01563,-0.07031 0.01563,-0.125 0,-0.09375 -0.03906,-0.160156 -0.109375,-0.203125 -0.07422,-0.05078 -0.179687,-0.07813 -0.3125,-0.07813 -0.15625,0 -0.265625,0.04297 -0.328125,0.125 -0.04297,0.04297 -0.07031,0.109375 -0.07813,0.203125 h -0.265625 c 0,-0.21875 0.06641,-0.367188 0.203125,-0.453125 0.132813,-0.08203 0.289063,-0.125 0.46875,-0.125 0.21875,0 0.390625,0.03906 0.515625,0.109375 0.125,0.08594 0.1875,0.210937 0.1875,0.375 v 1.03125 c 0,0.02344 0.0039,0.04297 0.01563,0.0625 0.01953,0.02344 0.05078,0.03125 0.09375,0.03125 0.0078,0 0.01953,0 0.03125,0 0.01953,0 0.03906,-0.0039 0.0625,-0.01563 v 0.234375 c -0.04297,0.0078 -0.07813,0.01563 -0.109375,0.01563 -0.02344,0 -0.05469,0 -0.09375,0 -0.105469,0 -0.179687,-0.03516 -0.21875,-0.109375 -0.03125,-0.03125 -0.05469,-0.08203 -0.0625,-0.15625 -0.0625,0.08594 -0.152343,0.15625 -0.265625,0.21875 -0.105468,0.05078 -0.226562,0.07813 -0.359375,0.07813 -0.167969,0 -0.304687,-0.04687 -0.40625,-0.140625 -0.105469,-0.101563 -0.15625,-0.234375 -0.15625,-0.390625 0,-0.164063 0.04687,-0.289063 0.140625,-0.375 0.101563,-0.09375 0.238282,-0.148438 0.40625,-0.171875 z m -0.25,-0.734375 z m 0,0"
     id="path13898" />
  <path
     style="fill:#4597d7;fill-opacity:1;fill-rule:nonzero;stroke:none"
     d="m 19.60338,52.513313 h 0.390625 l 0.40625,0.609375 0.40625,-0.609375 h 0.375 l -0.609375,0.859375 0.625,0.90625 h -0.375 l -0.4375,-0.671875 -0.4375,0.671875 h -0.375 l 0.625,-0.90625 z m 0,0"
     id="path13900" />
  <path
     style="fill:#4597d7;fill-opacity:1;fill-rule:nonzero;stroke:none"
     d="m 31.513536,15.818 h -1.015624 l -0.390626,0.71875 c -0.140624,-0.40625 -0.484374,-0.796875 -1.109374,-0.796875 -1.3125,0 -2.234376,1.25 -2.234376,2.453125 0,0.90625 0.5,1.359375 1.25,1.359375 0.5625,0 1.015626,-0.140625 1.46875,-0.625 0.0625,0.3125 0.359376,0.640625 0.71875,0.640625 0.53125,0 0.828126,-0.5 0.984376,-1.125 l -0.1875,-0.0625 c -0.125,0.40625 -0.296876,0.625 -0.46875,0.625 -0.125,0 -0.28125,-0.140625 -0.34375,-0.796875 0,-0.04687 0,-0.125 0,-0.1875 0,-0.04687 0,-0.09375 0,-0.09375 z m -2.109374,1.375 c 0,0.21875 -0.03125,0.4375 -0.0625,0.625 -0.21875,0.578125 -0.75,1.4375 -1.171876,1.4375 -0.328124,0 -0.46875,-0.46875 -0.46875,-0.9375 0,-1.328125 0.796876,-2.265625 1.1875,-2.265625 0.390626,0 0.515626,0.578125 0.515626,1.140625 z m 0,0"
     id="path13902" />
  <path
     style="fill:#4597d7;fill-opacity:1;fill-rule:nonzero;stroke:none"
     d="m 30.966662,19.513313 h 0.296874 v 0.25 c 0.07031,-0.09375 0.132813,-0.160157 0.1875,-0.203125 0.101563,-0.0625 0.21875,-0.09375 0.34375,-0.09375 0.132813,0 0.242188,0.03906 0.328126,0.109375 0.05078,0.03125 0.09766,0.08984 0.140624,0.171875 0.0625,-0.09375 0.132813,-0.160156 0.21875,-0.203125 0.09375,-0.05078 0.195313,-0.07813 0.3125,-0.07813 0.238282,0 0.398438,0.08984 0.484376,0.265625 0.05078,0.08594 0.07812,0.203125 0.07812,0.359375 v 1.1875 h -0.3125 v -1.234375 c 0,-0.113281 -0.03125,-0.191407 -0.09375,-0.234375 -0.05469,-0.05078 -0.125,-0.07813 -0.21875,-0.07813 -0.117187,0 -0.214843,0.04297 -0.296874,0.125 -0.08594,0.07422 -0.125,0.203125 -0.125,0.390625 v 1.03125 h -0.296876 v -1.15625 c 0,-0.125 -0.01562,-0.210938 -0.04687,-0.265625 -0.05469,-0.08203 -0.136719,-0.125 -0.25,-0.125 -0.117188,0 -0.21875,0.04687 -0.3125,0.140625 -0.09375,0.08594 -0.140626,0.242187 -0.140626,0.46875 v 0.9375 h -0.296874 z m 0,0"
     id="path13904" />
  <path
     style="fill:#4597d7;fill-opacity:1;fill-rule:nonzero;stroke:none"
     d="m 34.029162,20.810188 c 0,0.08594 0.03125,0.152344 0.09375,0.203125 0.0625,0.05469 0.132812,0.07813 0.21875,0.07813 0.101562,0 0.203124,-0.02344 0.296874,-0.07813 0.164063,-0.08203 0.25,-0.210938 0.25,-0.390625 v -0.25 c -0.03125,0.02344 -0.07812,0.04297 -0.140624,0.0625 -0.05469,0.01172 -0.105469,0.02344 -0.15625,0.03125 l -0.1875,0.03125 c -0.105469,0.01172 -0.1875,0.03125 -0.25,0.0625 -0.08594,0.05469 -0.125,0.136718 -0.125,0.25 z m 0.71875,-0.609375 c 0.0625,-0.0078 0.109374,-0.03516 0.140624,-0.07813 0.0078,-0.03125 0.01563,-0.07031 0.01563,-0.125 0,-0.09375 -0.03906,-0.160156 -0.109376,-0.203125 -0.07422,-0.05078 -0.179687,-0.07813 -0.3125,-0.07813 -0.15625,0 -0.265624,0.04297 -0.328124,0.125 -0.04297,0.04297 -0.07031,0.109375 -0.07813,0.203125 h -0.265624 c 0,-0.21875 0.06641,-0.367188 0.203124,-0.453125 0.132813,-0.08203 0.289063,-0.125 0.46875,-0.125 0.21875,0 0.390626,0.03906 0.515626,0.109375 0.125,0.08594 0.1875,0.210937 0.1875,0.375 v 1.03125 c 0,0.02344 0.0039,0.04297 0.01562,0.0625 0.01953,0.02344 0.05078,0.03125 0.09375,0.03125 0.0078,0 0.01953,0 0.03125,0 0.01953,0 0.03906,-0.0039 0.0625,-0.01563 v 0.234375 c -0.04297,0.0078 -0.07812,0.01563 -0.109374,0.01563 -0.02344,0 -0.05469,0 -0.09375,0 -0.105469,0 -0.179688,-0.03516 -0.21875,-0.109375 -0.03125,-0.03125 -0.05469,-0.08203 -0.0625,-0.15625 -0.0625,0.08594 -0.152344,0.15625 -0.265626,0.21875 -0.105468,0.05078 -0.226562,0.07813 -0.359374,0.07813 -0.167969,0 -0.304688,-0.04687 -0.40625,-0.140625 -0.105469,-0.101563 -0.15625,-0.234375 -0.15625,-0.390625 0,-0.164063 0.04687,-0.289063 0.140624,-0.375 0.101563,-0.09375 0.238282,-0.148438 0.40625,-0.171875 z m -0.25,-0.734375 z m 0,0"
     id="path13906" />
  <path
     style="fill:#4597d7;fill-opacity:1;fill-rule:nonzero;stroke:none"
     d="m 35.513536,19.513313 h 0.390626 l 0.40625,0.609375 0.40625,-0.609375 h 0.375 l -0.609376,0.859375 0.625,0.90625 h -0.375 l -0.4375,-0.671875 -0.4375,0.671875 h -0.375 l 0.625,-0.90625 z m 0,0"
     id="path13908" />
  <path
     style="fill:#000000;fill-opacity:1;fill-rule:nonzero;stroke:none"
     d="m 38.677599,58.595344 h -1.015625 l -0.390625,0.71875 c -0.140625,-0.40625 -0.484375,-0.796875 -1.109375,-0.796875 -1.3125,0 -2.234375,1.25 -2.234375,2.453125 0,0.90625 0.5,1.359375 1.25,1.359375 0.5625,0 1.015625,-0.140625 1.46875,-0.625 0.0625,0.3125 0.359375,0.640625 0.71875,0.640625 0.53125,0 0.828125,-0.5 0.984375,-1.125 l -0.1875,-0.0625 c -0.125,0.40625 -0.296875,0.625 -0.46875,0.625 -0.125,0 -0.28125,-0.140625 -0.34375,-0.796875 0,-0.04687 0,-0.125 0,-0.1875 0,-0.04687 0,-0.09375 0,-0.09375 z m -2.109375,1.375 c 0,0.21875 -0.03125,0.4375 -0.0625,0.625 -0.21875,0.578125 -0.75,1.4375 -1.171875,1.4375 -0.328125,0 -0.46875,-0.46875 -0.46875,-0.9375 0,-1.328125 0.796875,-2.265625 1.1875,-2.265625 0.390625,0 0.515625,0.578125 0.515625,1.140625 z m 0,0"
     id="path13910" />
  <path
     style="fill:#000000;fill-opacity:1;fill-rule:nonzero;stroke:none"
     d="m 38.435412,64.03675 c 0.0078,-0.269531 0.0625,-0.5 0.15625,-0.6875 0.101562,-0.195312 0.289062,-0.378906 0.5625,-0.546875 L 39.576036,62.568 c 0.1875,-0.113281 0.316407,-0.207031 0.390626,-0.28125 0.113281,-0.113281 0.171874,-0.25 0.171874,-0.40625 0,-0.175781 -0.05859,-0.316406 -0.171874,-0.421875 -0.105469,-0.113281 -0.246094,-0.171875 -0.421876,-0.171875 -0.261718,0 -0.445312,0.105469 -0.546874,0.3125 -0.05469,0.105469 -0.08594,0.25 -0.09375,0.4375 h -0.390626 c 0,-0.269531 0.04688,-0.488281 0.140626,-0.65625 0.164062,-0.300781 0.460937,-0.453125 0.890624,-0.453125 0.351563,0 0.613282,0.101563 0.78125,0.296875 0.164063,0.1875 0.25,0.402344 0.25,0.640625 0,0.242188 -0.08984,0.449219 -0.265624,0.625 -0.105469,0.105469 -0.289063,0.230469 -0.546876,0.375 l -0.296874,0.171875 c -0.136719,0.07422 -0.246094,0.148438 -0.328126,0.21875 -0.148437,0.125 -0.234374,0.265625 -0.265624,0.421875 h 1.6875 v 0.359375 z m 0,0"
     id="path13912" />
  <path
     style="fill:#000000;fill-opacity:1;fill-rule:nonzero;stroke:none"
     d="m 42.521349,34.462532 h -1.015625 l -0.390625,0.71875 c -0.140625,-0.40625 -0.484375,-0.796876 -1.109375,-0.796876 -1.3125,0 -2.234375,1.25 -2.234375,2.453126 0,0.90625 0.5,1.359374 1.25,1.359374 0.5625,0 1.015625,-0.140624 1.46875,-0.625 0.0625,0.3125 0.359375,0.640626 0.71875,0.640626 0.53125,0 0.828125,-0.5 0.984375,-1.125 l -0.1875,-0.0625 c -0.125,0.40625 -0.296875,0.625 -0.46875,0.625 -0.125,0 -0.28125,-0.140626 -0.34375,-0.796876 0,-0.04687 0,-0.125 0,-0.1875 0,-0.04687 0,-0.09375 0,-0.09375 z m -2.109375,1.375 c 0,0.21875 -0.03125,0.4375 -0.0625,0.625 -0.21875,0.578124 -0.75,1.4375 -1.171875,1.4375 -0.328125,0 -0.46875,-0.46875 -0.46875,-0.9375 0,-1.328126 0.796875,-2.265626 1.1875,-2.265626 0.390625,0 0.515625,0.578126 0.515625,1.140626 z m 0,0"
     id="path13914" />
  <path
     style="fill:#000000;fill-opacity:1;fill-rule:nonzero;stroke:none"
     d="m 43.294786,39.982063 c -0.375,0 -0.648437,-0.09766 -0.8125,-0.296875 -0.15625,-0.195313 -0.234374,-0.441406 -0.234374,-0.734375 h 0.40625 c 0.0078,0.199219 0.04687,0.34375 0.109374,0.4375 0.101563,0.167969 0.285157,0.25 0.546876,0.25 0.207031,0 0.367187,-0.05078 0.484374,-0.15625 0.125,-0.113281 0.1875,-0.257813 0.1875,-0.4375 0,-0.207031 -0.07031,-0.351563 -0.203124,-0.4375 -0.125,-0.09375 -0.304688,-0.140625 -0.53125,-0.140625 -0.02344,0 -0.04688,0.0078 -0.07813,0.01563 -0.03125,0 -0.05859,0 -0.07812,0 v -0.34375 c 0.03906,0 0.07031,0 0.09375,0 0.03125,0 0.0625,0 0.09375,0 0.144531,0 0.265624,-0.01953 0.359374,-0.0625 0.164063,-0.08203 0.25,-0.226563 0.25,-0.4375 0,-0.144531 -0.05859,-0.257813 -0.171874,-0.34375 -0.105469,-0.08203 -0.230469,-0.125 -0.375,-0.125 -0.261719,0 -0.445313,0.08594 -0.546876,0.25 -0.05469,0.09375 -0.08594,0.230469 -0.09375,0.40625 h -0.375 c 0,-0.226563 0.04688,-0.425781 0.140626,-0.59375 0.15625,-0.28125 0.429687,-0.421875 0.828124,-0.421875 0.3125,0 0.550782,0.07422 0.71875,0.21875 0.175782,0.136718 0.265626,0.335937 0.265626,0.59375 0,0.199218 -0.04688,0.355468 -0.140626,0.46875 -0.0625,0.07422 -0.148437,0.132812 -0.25,0.171875 0.164063,0.04297 0.289063,0.132812 0.375,0.265625 0.09375,0.125 0.140626,0.277344 0.140626,0.453125 0,0.304687 -0.101563,0.546875 -0.296876,0.734375 -0.1875,0.179687 -0.460937,0.265625 -0.8125,0.265625 z m 0,0"
     id="path13916" />
  <path
     style="fill:#a11717;fill-opacity:1;fill-rule:nonzero;stroke:none"
     d="m 39.91588,13.841438 h 0.703125 v 4.5625 h 2.609375 v 0.609375 h -3.3125 z m 0,0"
     id="path13918" />
  <path
     style="fill:#a11717;fill-opacity:1;fill-rule:nonzero;stroke:none"
     d="m 24.783068,43.048469 h 0.703125 v 4.5625 h 2.609375 v 0.609375 h -3.3125 z m 0,0"
     id="path13920" />
  <path
     style="fill:#a11717;fill-opacity:1;fill-rule:nonzero;stroke:none"
     d="m 30.91588,77.591438 h 0.703125 v 4.5625 h 2.609375 v 0.609375 h -3.3125 z m 0,0"
     id="path13922" />
  <path
     style="fill:none;stroke:#000000;stroke-width:0.283465;stroke-linecap:butt;stroke-linejoin:miter;stroke-miterlimit:4;stroke-dasharray:0.283465, 0.850394;stroke-opacity:1"
     d="m 29.44713,65.095344 -5.25,-10.5"
     id="path13924" />
  <path
     style="fill:none;stroke:#000000;stroke-width:0.283465;stroke-linecap:butt;stroke-linejoin:miter;stroke-miterlimit:4;stroke-dasharray:0.283465, 0.850394;stroke-opacity:1"
     d="m 35.44713,34.345344 3,-11.25"
     id="path13926" />
  <circle
     style="fill:#ff0000;fill-opacity:1;stroke:none;stroke-width:2.835;stroke-linecap:square;stroke-miterlimit:4;stroke-dasharray:none"
     id="path7351"
     cx="56.458672"
     cy="11.224075"
     r="3.4787114" />
  <text
     xml:space="preserve"
     style="font-style:normal;font-weight:normal;font-size:5.0813px;line-height:1.25;font-family:sans-serif;fill:#000000;fill-opacity:1;stroke:none;stroke-width:0.127032"
     x="54.549389"
     y="26.633764"
     id="text7355"><tspan
       sodipodi:role="line"
       id="tspan7353"
       style="stroke-width:0.127032"
       x="54.549389"
       y="26.633764">end-effector</tspan></text>
  <path
     style="fill:none;stroke:#000000;stroke-width:0.75;stroke-linecap:butt;stroke-linejoin:miter;stroke-miterlimit:4;stroke-dasharray:0.75, 0.75;stroke-dashoffset:0;stroke-opacity:1;marker-end:url(#TriangleOutM)"
     d="M 68.523665,21.832084 62.034176,14.611385"
     id="path7357"
     sodipodi:nodetypes="cc" />
  <path
     style="fill:none;stroke:#474747;stroke-width:0.5625;stroke-linecap:butt;stroke-linejoin:miter;stroke-miterlimit:4;stroke-dasharray:none;stroke-opacity:1;marker-start:url(#TriangleInM);marker-end:url(#marker7647)"
     d="M 10.348423,5.5626609 H 55.771534"
     id="path7629" />
  <text
     xml:space="preserve"
     style="font-style:normal;font-weight:normal;font-size:8.81639px;line-height:1.25;font-family:sans-serif;fill:#000000;fill-opacity:1;stroke:none;stroke-width:0.22041"
     x="33.609879"
     y="3.917439"
     id="text7665"><tspan
       sodipodi:role="line"
       id="tspan7663"
       style="font-style:italic;font-variant:normal;font-weight:normal;font-stretch:normal;font-family:Times;-inkscape-font-specification:'Times Italic';stroke-width:0.22041"
       x="33.609879"
       y="3.917439">x</tspan></text>
  <path
     style="fill:none;stroke:#474747;stroke-width:0.754064;stroke-linecap:butt;stroke-linejoin:miter;stroke-miterlimit:4;stroke-dasharray:none;stroke-opacity:1;marker-start:url(#TriangleInM-9);marker-end:url(#marker7647-3)"
     d="M 6.4622131,9.9000077 V 91.529753"
     id="path7629-0" />
  <text
     xml:space="preserve"
     style="font-style:normal;font-weight:normal;font-size:8.8164px;line-height:1.25;font-family:sans-serif;fill:#000000;fill-opacity:1;stroke:none;stroke-width:0.22041"
     x="0.22815877"
     y="54.454273"
     id="text7665-5"><tspan
       sodipodi:role="line"
       id="tspan7663-6"
       style="font-style:italic;font-variant:normal;font-weight:normal;font-stretch:normal;font-family:Times;-inkscape-font-specification:'Times Italic';stroke-width:0.22041"
       x="0.22815877"
       y="54.454273">y</tspan></text>
</svg>
